<svg width="128" height="128" viewBox="0 0 128 128" fill="none" xmlns="http://www.w3.org/2000/svg">
<mask id="mask0_10_186" style="mask-type:luminance" maskUnits="userSpaceOnUse" x="16" y="16" width="104" height="96">
<path d="M120 16H16V112H120V16Z" fill="white"/>
</mask>
<g mask="url(#mask0_10_186)">
<path d="M114.594 50.0346C114.601 49.026 114.082 48.0872 113.226 47.5597H113.21L113.156 47.5297L68.64 21.0697C68.4478 20.9393 68.2483 20.8201 68.0425 20.7127C66.3236 19.8223 64.2819 19.8223 62.563 20.7127C62.3572 20.8202 62.1577 20.9393 61.9655 21.0697L17.4491 47.5297L17.3953 47.5597C16.0348 48.4093 15.6177 50.2055 16.4637 51.5717C16.713 51.9742 17.0564 52.3095 17.464 52.5487L61.9805 79.0089C62.1734 79.1378 62.3729 79.2573 62.5781 79.3658C64.2969 80.256 66.3387 80.256 68.0575 79.3658C68.2628 79.2573 68.4621 79.1378 68.6551 79.0089L113.171 52.5487C114.061 52.0281 114.604 51.0684 114.594 50.0346Z" fill="#112F70"/>
<path d="M113.226 52.3832L113.169 52.4133L68.652 77.5535C68.4578 77.6735 68.2606 77.7875 68.0544 77.8895C67.2983 78.2507 66.4771 78.4547 65.6404 78.4895L63.2084 77.0615C63.003 76.9576 62.8034 76.8424 62.6109 76.7164L17.4968 50.8622H17.4759L16 50.0342V100.926C16.023 104.322 18.7821 107.056 22.1636 107.034H108.526C108.577 107.034 108.621 107.01 108.675 107.01C109.389 106.964 110.093 106.817 110.766 106.573C111.058 106.448 111.338 106.302 111.606 106.134C111.806 106.021 112.15 105.771 112.15 105.771C113.68 104.634 114.586 102.838 114.594 100.926V50.0342C114.593 51.0076 114.07 51.9051 113.226 52.3832Z" fill="url(#paint0_linear_10_186)"/>
<path d="M100.188 16H33.683C30.3044 16 27.5654 18.6863 27.5654 22V80.3448C27.5654 83.6584 30.3044 86.3448 33.683 86.3448H100.188C103.566 86.3448 106.306 83.6584 106.306 80.3448V22C106.306 18.6863 103.566 16 100.188 16Z" fill="white"/>
<path d="M39.8007 34C43.1795 34 45.9184 31.3137 45.9184 28C45.9184 24.6863 43.1795 22 39.8007 22C36.4221 22 33.6831 24.6863 33.6831 28C33.6831 31.3137 36.4221 34 39.8007 34Z" fill="#0364B8"/>
<path d="M61.2126 40H36.7419C35.0526 40 33.6831 41.3431 33.6831 43C33.6831 44.6569 35.0526 46 36.7419 46H61.2126C62.9019 46 64.2714 44.6569 64.2714 43C64.2714 41.3431 62.9019 40 61.2126 40Z" fill="#0364B8" fill-opacity="0.8"/>
<path d="M91.8008 48.4004H36.7419C35.0526 48.4004 33.6831 49.7435 33.6831 51.4004C33.6831 53.0573 35.0526 54.4004 36.7419 54.4004H91.8008C93.4904 54.4004 94.8592 53.0573 94.8592 51.4004C94.8592 49.7435 93.4904 48.4004 91.8008 48.4004Z" fill="#0364B8" fill-opacity="0.5"/>
<path d="M91.8008 56.8008H36.7419C35.0526 56.8008 33.6831 58.1439 33.6831 59.8008C33.6831 61.4576 35.0526 62.8008 36.7419 62.8008H91.8008C93.4904 62.8008 94.8592 61.4576 94.8592 59.8008C94.8592 58.1439 93.4904 56.8008 91.8008 56.8008Z" fill="#0364B8" fill-opacity="0.5"/>
<path d="M113.226 52.3832L113.169 52.4162L68.6519 77.5564C68.4578 77.6759 68.2606 77.7899 68.0543 77.8919C66.3254 78.7403 64.3037 78.7403 62.575 77.8919C62.3702 77.7904 62.1708 77.6783 61.9774 77.5564L17.461 52.4162L17.4072 52.3832C16.5478 51.9153 16.0089 51.0159 16 50.0342V100.926C16.0214 104.322 18.7795 107.055 22.1603 107.034H108.433C111.814 107.056 114.572 104.322 114.594 100.926V50.0342C114.593 51.0076 114.07 51.9051 113.226 52.3832Z" fill="#158BD7"/>
<path d="M22.2443 107.034H108.424C109.75 107.041 111.044 106.621 112.114 105.834L63.2054 77.0675C62.9998 76.9636 62.8004 76.8484 62.6078 76.7224L17.4938 50.8682H17.4729L16 50.0342V100.753C15.9966 104.218 18.7922 107.031 22.2443 107.034Z" fill="#20A9EF"/>
</g>
<defs>
<linearGradient id="paint0_linear_10_186" x1="65.2969" y1="50.0342" x2="65.2969" y2="107.034" gradientUnits="userSpaceOnUse">
<stop stop-color="#35B8F1"/>
<stop offset="1" stop-color="#28A8EA"/>
</linearGradient>
</defs>
</svg>
