<svg width="128" height="41" viewBox="0 0 128 41" fill="none" xmlns="http://www.w3.org/2000/svg">
<g clip-path="url(#clip0_10_167)">
<mask id="mask0_10_167" style="mask-type:luminance" maskUnits="userSpaceOnUse" x="4" y="4" width="32" height="30">
<path d="M35.1219 4.73071H4.68292V33.1153H35.1219V4.73071Z" fill="white"/>
</mask>
<g mask="url(#mask0_10_167)">
<path d="M33.5398 14.7937C33.5416 14.4955 33.3899 14.2179 33.1392 14.0619H33.1348L33.1189 14.053L20.0898 6.2295C20.0336 6.19096 19.9752 6.1557 19.9149 6.12398C19.4118 5.86069 18.8143 5.86069 18.3112 6.12398C18.2509 6.15574 18.1925 6.19096 18.1363 6.2295L5.10711 14.053L5.09138 14.0619C4.69317 14.3131 4.57107 14.8442 4.8187 15.2481C4.89166 15.3671 4.99216 15.4663 5.11145 15.537L18.1407 23.3606C18.1971 23.3987 18.2555 23.434 18.3156 23.4661C18.8187 23.7293 19.4163 23.7293 19.9193 23.4661C19.9794 23.434 20.0377 23.3987 20.0942 23.3606L33.1233 15.537C33.3837 15.3831 33.5426 15.0993 33.5398 14.7937Z" fill="#112F70"/>
<path d="M33.1392 15.4882L33.1227 15.497L20.0933 22.9303C20.0364 22.9658 19.9787 22.9995 19.9184 23.0297C19.6971 23.1364 19.4567 23.1967 19.2118 23.2071L18.5 22.7848C18.4399 22.7541 18.3815 22.7201 18.3251 22.6828L5.12099 15.0384H5.11491L4.68292 14.7936V29.8411C4.68967 30.8449 5.49719 31.6535 6.48691 31.6469H31.7637C31.7787 31.6469 31.7915 31.6399 31.8074 31.6399C32.0162 31.6261 32.2223 31.5825 32.4196 31.5105C32.5048 31.4736 32.5869 31.4304 32.665 31.3809C32.7237 31.3473 32.8242 31.2735 32.8242 31.2735C33.2722 30.9372 33.5372 30.4064 33.5394 29.8411V14.7936C33.5394 15.0814 33.3861 15.3468 33.1392 15.4882Z" fill="url(#paint0_linear_10_167)"/>
<path d="M29.3234 4.73071H9.85849C8.86965 4.73071 8.06799 5.52498 8.06799 6.50475V23.7558C8.06799 24.7355 8.86965 25.5298 9.85849 25.5298H29.3234C30.3122 25.5298 31.1139 24.7355 31.1139 23.7558V6.50475C31.1139 5.52498 30.3122 4.73071 29.3234 4.73071Z" fill="white"/>
<path d="M11.649 10.0528C12.6379 10.0528 13.4395 9.25857 13.4395 8.2788C13.4395 7.29903 12.6379 6.50476 11.649 6.50476C10.6601 6.50476 9.85846 7.29903 9.85846 8.2788C9.85846 9.25857 10.6601 10.0528 11.649 10.0528Z" fill="#0364B8"/>
<path d="M17.9158 11.8269H10.7537C10.2593 11.8269 9.85846 12.224 9.85846 12.7139C9.85846 13.2038 10.2593 13.6009 10.7537 13.6009H17.9158C18.4103 13.6009 18.8111 13.2038 18.8111 12.7139C18.8111 12.224 18.4103 11.8269 17.9158 11.8269Z" fill="#0364B8" fill-opacity="0.8"/>
<path d="M26.8685 14.3108H10.7537C10.2593 14.3108 9.85846 14.7079 9.85846 15.1978C9.85846 15.6877 10.2593 16.0848 10.7537 16.0848H26.8685C27.363 16.0848 27.7636 15.6877 27.7636 15.1978C27.7636 14.7079 27.363 14.3108 26.8685 14.3108Z" fill="#0364B8" fill-opacity="0.5"/>
<path d="M26.8685 16.7944H10.7537C10.2593 16.7944 9.85846 17.1916 9.85846 17.6815C9.85846 18.1713 10.2593 18.5685 10.7537 18.5685H26.8685C27.363 18.5685 27.7636 18.1713 27.7636 17.6815C27.7636 17.1916 27.363 16.7944 26.8685 16.7944Z" fill="#0364B8" fill-opacity="0.5"/>
<path d="M33.1392 15.4882L33.1227 15.4979L20.0932 22.9312C20.0364 22.9665 19.9787 23.0002 19.9183 23.0304C19.4123 23.2812 18.8206 23.2812 18.3146 23.0304C18.2547 23.0004 18.1963 22.9672 18.1397 22.9312L5.11054 15.4979L5.09477 15.4882C4.84323 15.3498 4.68551 15.0839 4.68292 14.7936V29.8411C4.68917 30.8449 5.49644 31.6532 6.48594 31.6469H31.7365C32.7258 31.6535 33.5332 30.8449 33.5394 29.8411V14.7936C33.5394 15.0814 33.3861 15.3468 33.1392 15.4882Z" fill="#158BD7"/>
<path d="M6.51055 31.6469H31.734C32.1217 31.6488 32.5008 31.5247 32.8139 31.2922L18.4991 22.7866C18.439 22.7559 18.3806 22.7218 18.3243 22.6846L5.12015 15.0402H5.114L4.68292 14.7936V29.7897C4.68196 30.8144 5.50016 31.6459 6.51055 31.6469Z" fill="#20A9EF"/>
</g>
<mask id="mask1_10_167" style="mask-type:luminance" maskUnits="userSpaceOnUse" x="40" y="3" width="88" height="38">
<path d="M128 3.15381H40.5854V41H128V3.15381Z" fill="white"/>
</mask>
<g mask="url(#mask1_10_167)">
<path d="M53.248 4.06212C54.2221 4.06212 55.2586 4.17565 56.3575 4.40273C57.4814 4.60458 58.5553 4.94519 59.5793 5.42458C60.6283 5.87873 61.5025 6.47165 62.2018 7.20335L60.2162 9.54981C59.442 8.91904 58.7177 8.40181 58.0433 7.99812C57.369 7.59442 56.6572 7.29165 55.9079 7.08981C55.1836 6.88796 54.297 6.78704 53.248 6.78704C51.5996 6.78704 50.201 7.10242 49.0521 7.73319C47.9282 8.36396 47.0041 9.22181 46.2798 10.3067C45.5805 11.3917 45.0685 12.6153 44.7438 13.9778C44.4191 15.3403 44.2568 16.7532 44.2568 18.2166C44.2568 19.6043 44.4067 20.9793 44.7064 22.3418C45.0061 23.679 45.4931 24.9027 46.1674 26.0129C46.8418 27.123 47.7284 28.0061 48.8273 28.6621C49.9263 29.3181 51.275 29.6461 52.8734 29.6461C54.1971 29.6461 55.3335 29.356 56.2826 28.7757C57.2566 28.1701 58.0059 27.3627 58.5304 26.3535C59.0798 25.319 59.3546 24.1584 59.3546 22.8717V20.3738H52.6486L53.0982 17.8003H62.8761V25.7101C62.8761 26.7446 62.9136 27.7917 62.9885 28.8513C63.0884 29.911 62.9386 30.8446 62.9885 31.879H60.1413V29.1163C59.0424 30.3021 57.856 31.16 56.5823 31.6898C55.3335 32.1944 53.8974 32.4467 52.274 32.4467C50.3009 32.4467 48.5776 32.0809 47.104 31.3492C45.6554 30.5923 44.4441 29.5704 43.4701 28.2837C42.496 26.9717 41.7717 25.483 41.2972 23.8178C40.8227 22.1526 40.5854 20.399 40.5854 18.5572C40.5854 16.5387 40.8476 14.659 41.3721 12.9181C41.8966 11.152 42.6833 9.61289 43.7323 8.30089C44.7813 6.96365 46.0925 5.92919 47.666 5.1975C49.2644 4.44058 51.1251 4.06212 53.248 4.06212ZM76.7388 12.8046C78.0376 12.8046 79.174 13.0821 80.148 13.6372C81.1221 14.1923 81.9213 14.9492 82.5457 15.908C83.195 16.8415 83.6821 17.876 84.0067 19.0113C84.3314 20.1467 84.4938 21.3073 84.4938 22.4932C84.4938 23.78 84.3189 25.0163 83.9693 26.2021C83.6446 27.388 83.1451 28.4603 82.4707 29.419C81.7964 30.3526 80.9472 31.0969 79.9232 31.652C78.8992 32.207 77.6879 32.4846 76.2893 32.4846C75.2403 32.4846 74.2288 32.2827 73.2547 31.879C72.3057 31.4753 71.494 30.8698 70.8196 30.0624L68.2721 33.1153V32.0304C68.2971 31.6015 68.3221 31.1726 68.347 30.7437C68.372 30.2895 68.3845 29.848 68.3845 29.419V5.34889L67.86 3.15381H71.494V13.5993C71.494 13.8264 71.4815 14.0535 71.4565 14.2806C71.4565 14.4824 71.444 14.6969 71.419 14.924C72.2182 14.1923 73.03 13.6624 73.8542 13.3344C74.7033 12.9812 75.6649 12.8046 76.7388 12.8046ZM75.9521 15.4917C75.1279 15.4917 74.3162 15.6935 73.517 16.0972C72.7427 16.4757 72.0684 16.9677 71.494 17.5732V24.4612C71.494 25.5209 71.6438 26.4797 71.9435 27.3375C72.2432 28.1953 72.7302 28.8766 73.4046 29.3812C74.1039 29.8858 75.028 30.1381 76.1769 30.1381C77.126 30.1381 77.9127 29.8984 78.5371 29.419C79.1864 28.9144 79.6984 28.2837 80.0731 27.5267C80.4477 26.7446 80.7224 25.9246 80.8973 25.0667C81.0721 24.1837 81.1595 23.3637 81.1595 22.6067C81.1595 21.7741 81.0596 20.9415 80.8598 20.1089C80.685 19.2763 80.3853 18.5193 79.9607 17.8381C79.5611 17.1317 79.0241 16.564 78.3498 16.135C77.7004 15.7061 76.9012 15.4917 75.9521 15.4917ZM96.1305 32.4846C94.3073 32.4846 92.7713 32.0304 91.5225 31.1221C90.2987 30.1886 89.3746 28.9775 88.7502 27.4889C88.1508 26.0003 87.8511 24.4107 87.8511 22.7203C87.8511 21.4587 88.0384 20.235 88.4131 19.0492C88.7877 17.8381 89.3372 16.7658 90.0614 15.8323C90.7857 14.8735 91.6724 14.1166 92.7214 13.5615C93.7953 13.0064 95.0066 12.7289 96.3553 12.7289C98.2035 12.7289 99.7395 13.183 100.963 14.0913C102.212 14.9997 103.136 16.1981 103.736 17.6867C104.36 19.1753 104.672 20.7775 104.672 22.4932C104.672 23.78 104.485 25.0289 104.11 26.24C103.736 27.4258 103.186 28.4855 102.462 29.419C101.763 30.3526 100.876 31.0969 99.8019 31.652C98.753 32.207 97.5292 32.4846 96.1305 32.4846ZM96.168 30.1003C97.142 30.1003 97.9537 29.8732 98.6031 29.419C99.2774 28.9397 99.8144 28.3215 100.214 27.5646C100.639 26.8077 100.938 26.0003 101.113 25.1424C101.288 24.2593 101.375 23.4141 101.375 22.6067C101.375 21.7741 101.288 20.9289 101.113 20.071C100.963 19.188 100.701 18.3806 100.326 17.6489C99.9518 16.892 99.4273 16.2864 98.753 15.8323C98.1036 15.3529 97.2919 15.1132 96.3178 15.1132C95.3438 15.1132 94.5196 15.3529 93.8453 15.8323C93.1959 16.2864 92.6714 16.892 92.2718 17.6489C91.8722 18.4058 91.585 19.2258 91.4101 20.1089C91.2353 20.9667 91.1479 21.7993 91.1479 22.6067C91.1479 23.3889 91.2353 24.2215 91.4101 25.1046C91.585 25.9624 91.8597 26.7698 92.2343 27.5267C92.6339 28.2837 93.1584 28.9018 93.8078 29.3812C94.4572 29.8606 95.2439 30.1003 96.168 30.1003ZM110.012 13.183L122 32.0304H118.441L106.453 13.183H110.012ZM118.329 13.183L126.439 7.88458L109.375 32.0304L100.963 38.6078L118.329 13.183Z" fill="black"/>
</g>
</g>
<defs>
<linearGradient id="paint0_linear_10_167" x1="19.1113" y1="14.7936" x2="19.1113" y2="31.6469" gradientUnits="userSpaceOnUse">
<stop stop-color="#35B8F1"/>
<stop offset="1" stop-color="#28A8EA"/>
</linearGradient>
<clipPath id="clip0_10_167">
<rect width="128" height="41" fill="white"/>
</clipPath>
</defs>
</svg>
